<?xml version="1.0" encoding="utf-8"?>
<!-- Generator: Adobe Illustrator 24.0.2, SVG Export Plug-In . SVG Version: 6.00 Build 0)  -->
<svg version="1.1" xmlns="http://www.w3.org/2000/svg" xmlns:xlink="http://www.w3.org/1999/xlink" x="0px" y="0px"
	 viewBox="0 0 360.6 366.44" style="enable-background:new 0 0 360.6 366.44;" xml:space="preserve">
<style type="text/css">
	.st0{display:none;}
	.st1{fill:#141414;}
	.st2{fill:#FFFFFF;stroke:#FFFFFF;stroke-miterlimit:10;}
	.st3{fill:#721519;}
	.st4{fill:#82232A;}
	.st5{fill:#912D39;}
	.st6{fill:#212020;}
	.st7{fill:#3EBBF9;}
</style>
<g id="Capa_1" class="st0">
	
		<image style="display:inline;overflow:visible;opacity:0.44;" width="719" height="1280" xlink:href="FC7C2448.jpg"  transform="matrix(0.6586 0 0 0.5781 69.25 26)">
	</image>
</g>
<g id="Capa_2">
	<g>
		<path class="st1" d="M151.08,16.5c0,0,19.67-11,31.33-3l15.33,10c0,0,20.33-7.67,9.33,6.33c0,0-6,9.67-20.33,13
			c0,0-5.67-2-1.67-9.33c0,0-6-10.33-21,1s-73.33,45.67-88.67,71c0,0-29.67,40-6,78.33c0,0,11.28,29.61,52.78,30.73
			c2.19,0.06,11.44,0.24,15.04,0.33c0.94,0.02,1.88,0.03,2.81,0c12.08-0.35,43.66-7.81,112.37-58.07c0,0,25-18.33,10-22.33
			s-3.33-11-3.33-11s2.67-7,22.67-13.67c0,0,12,1.67,3.33,10.67c0,0,12,24.67-8,43.67c0,0-86.67,63.67-118,66c0,0-48,17-88.67-22.33
			c0,0-61,40.67-12.33,93.67c0,0,18.5,40.83,134.5,28.33c0,0,108-9,115.5-15c0,0,7-25,29.5-10c0,0,25,17.5,0,39c0,0-15.5,9-28-11
			c0,0-117.2,27.68-185.83,18.72c-7.31-0.95-13.7-2.44-19.51-4.28c-6.26-1.98-19.67-5.25-23.66-8.44c0,0-65.72-30.08-60.46-87.14
			c0.21-2.25,2.25-9.52,4.49-13.63c5.99-11,18.73-32.36,31.47-40.73c0,0-35.5-56.5,4.5-104.5C60.58,92.83,71.58,74.66,151.08,16.5z"
			/>
		<ellipse class="st2" cx="327.11" cy="322.58" rx="8.75" ry="10.25"/>
		<g>
			<path class="st3" d="M152.11,136.08c0,0,4.5-37,8-37c0,0,8,23,19.5,40.5c0,0,8.5-15,7.5-34l12,13.75l6-10.25l3.5,7l23-6
				c0,0,4.5-38-34-45.5c0,0-29,0-36.5,16.5c0,0-50-30.5-67,21c0,0-2.5,23,8.5,30l13.5-2l4-20l14,26l4.5-26L152.11,136.08z"/>
			<path class="st3" d="M109.11,142.58c0,0,12.5-5,12.5-9l17.5,15.5l2.5-9.5l12,9.5c0,0,8.42-19.5,9.21-22.5l20.47,27.5l9.82-30l9,7
				l5-12.5v5.5l24.66-5.5c0,0-13.66,46.5-51.66,68C180.11,186.58,131.11,166.08,109.11,142.58z"/>
			<path class="st4" d="M178.28,73.91c0,0,10-6.67,18.67-3.33c0,0,27.33,3.67,28.67,24C225.61,94.58,205.94,73.91,178.28,73.91z"/>
			<path class="st4" d="M210.28,126.24l15.33-3.33c0,0-13.67,39.67-44.33,59C181.28,181.91,222.67,134.57,210.28,126.24z"/>
			<path class="st4" d="M148.94,122.91c0,0-3-14.33,2.67-20.83C151.61,102.08,151.28,120.34,148.94,122.91z"/>
			<path class="st4" d="M178.28,107.24h6.33c0,0-0.67,18.83-6.33,25.67C178.28,132.91,183.94,110.24,178.28,107.24z"/>
		</g>
		<path class="st5" d="M158.11,82.11c0,0-9.64-6.14-20-8.03"/>
		<path class="st1" d="M148.15,23.33c0,0,18.04-12.25,30.13-6c0,0-12.92-11.5-30.17,4.25S148.15,23.33,148.15,23.33z"/>
		<path class="st6" d="M156.55,18.85c0,0,20.91-6.02,26.73,1.23C183.28,20.08,177.49,4.37,156.55,18.85z"/>
		<path class="st6" d="M282.11,122.91c0,0,8.25,26.92-11.75,39.67c0,0,14.75-24.08,10.5-39.67S282.11,122.91,282.11,122.91z"/>
		<g>
			<polygon class="st7" points="145.6,250.36 162.88,250.36 169.36,264.04 169.36,287.8 159.64,272.68 159.64,306.52 145.6,306.52 
							"/>
			<polygon class="st7" points="179.8,250.36 195.64,250.36 195.64,304.72 182.68,304.72 181.6,271.96 174.04,285.64 174.04,262.24 
							"/>
			<polygon class="st7" points="123.28,250.36 128.32,250.36 139.48,271.24 139.48,306.52 126.52,306.52 125.44,291.04 
				120.76,291.76 120.76,280.6 125.8,280.24 125.8,273.4 123.64,268 			"/>
			<polygon class="st7" points="116.44,250.36 120.76,250.36 120.76,269.08 118.6,274.12 118.6,304.72 103.48,304.72 103.48,273.4 
							"/>
			<rect x="201.76" y="250.36" class="st7" width="14.04" height="56.16"/>
			<polygon class="st7" points="218.32,306.52 230.92,306.52 237.4,297.16 237.4,258.28 229.48,250.36 218.32,250.36 218.32,261.52 
				218.32,263.68 222.64,264.04 222.28,293.92 218.32,293.92 218.32,304.72 			"/>
		</g>
	</g>
</g>
</svg>
